<?xml version="1.0" encoding="UTF-8"?> <!-- Generator: Adobe Illustrator 23.0.6, SVG Export Plug-In . SVG Version: 6.00 Build 0) --> <svg xmlns="http://www.w3.org/2000/svg" xmlns:xlink="http://www.w3.org/1999/xlink" version="1.1" id="Capa_1" x="0px" y="0px" viewBox="0 0 418.73 184.38" style="enable-background:new 0 0 418.73 184.38;" xml:space="preserve"> <style type="text/css"> .st0{fill-rule:evenodd;clip-rule:evenodd;fill:#4F77BD;} .st1{fill:none;stroke:#4F77BD;stroke-miterlimit:10;} .st2{fill-rule:evenodd;clip-rule:evenodd;fill:#8CA1D0;} .st3{fill:none;stroke:#4F77BD;stroke-linecap:round;} .st4{fill:none;stroke:#4F77BD;stroke-linecap:round;stroke-miterlimit:10;} .st5{fill-rule:evenodd;clip-rule:evenodd;fill:#FFFFFF;} .st6{fill:none;stroke:#FFFFFF;stroke-width:0.8026;stroke-linecap:round;} .st7{fill:none;stroke:#FFFFFF;stroke-width:0.6838;stroke-linecap:round;} .st8{fill:none;stroke:#FFFFFF;stroke-miterlimit:10;} </style> <g> <path class="st5" d="M67.54,152.47H29.8c-9.06,0-16.2-3.33-21.44-10.01c-4.69-5.98-7.04-13.34-7.04-22.11 c0-8.95,2.39-16.55,7.16-22.81c5.31-6.94,12.41-10.4,21.32-10.4h37.74v13.77H32.63c-4.17,0-7.45,1.89-9.84,5.69 c-2.15,3.4-3.24,7.58-3.24,12.56c0,5.14,1.11,9.52,3.3,13.15c2.43,4.01,5.69,6.02,9.78,6.02h34.91V152.47z M129.64,152.33h-29.26 c-4.38,0-7.84-1.37-10.42-4.11c-2.33-2.49-3.49-5.51-3.49-9.09c0-1.57,0.24-3.07,0.73-4.51c0.49-1.44,1.23-2.76,2.23-3.96 c-0.94-1.14-1.66-2.46-2.19-3.95c-0.52-1.5-0.77-2.99-0.77-4.49c0-3.57,1.16-6.6,3.49-9.09c2.58-2.76,6.04-4.14,10.42-4.14h29.26 v9.18h-27.36c-1.24,0-2.22,0.4-2.94,1.18c-0.71,0.8-1.08,1.73-1.08,2.79c0,1.05,0.35,1.95,1.04,2.69c0.69,0.76,1.69,1.13,2.98,1.13 h27.36v9.4h-28.92c-0.78,0.3-1.38,0.79-1.81,1.46c-0.42,0.68-0.65,1.43-0.65,2.27c0,1.05,0.35,1.95,1.04,2.7 c0.69,0.75,1.69,1.13,2.98,1.13h27.36V152.33z M194.78,143.79c0,2.78-1.34,5.06-4.02,6.87c-2.52,1.69-5.53,2.53-9.05,2.53 c-3.06,0-5.79-0.68-8.2-2.03c-2.7-1.51-4.6-3.69-5.71-6.54c-0.24-0.56-1.26-3.65-3.07-9.28c-1.69-5.26-3.13-9.25-4.32-11.97 c-1.7-3.92-3.1-5.81-4.18-5.69c-0.73,0.16-1.23,0.4-1.49,0.73c-0.26,0.35-0.4,0.83-0.4,1.45v32.67h-11.41v-34.92 c0-3.19,1.41-5.61,4.24-7.29c2.46-1.43,5.59-2.15,9.4-2.15c5.07,0,9.13,2.18,12.17,6.55c2.01,2.88,3.94,7.57,5.75,14.05 c2.03,7.11,3.5,11.54,4.44,13.29c0.26,0.45,0.59,0.79,1.02,1.03c0.43,0.23,0.87,0.35,1.33,0.35c0.56,0,1.03-0.19,1.44-0.56 c0.4-0.37,0.61-0.9,0.61-1.56v-32.68h11.45V143.79z M240.85,118.17h-11.63v34.37H218v-34.37h-11.59v-9.18h34.44V118.17z M264.29,152.55h-11.41v-43.56h11.41V152.55z M311.2,152.55h-16.78c-6.04,0-10.8-2.23-14.29-6.67c-3.13-3.99-4.7-8.9-4.7-14.74 c0-5.97,1.59-11.03,4.77-15.21c3.54-4.62,8.28-6.94,14.21-6.94h16.78c5.93,0,10.67,2.31,14.21,6.94c3.18,4.18,4.77,9.24,4.77,15.21 c0,5.86-1.56,10.77-4.66,14.74C322.04,150.32,317.26,152.55,311.2,152.55L311.2,152.55z M309.29,143.11c2.7,0,4.87-1.33,6.52-4.01 c1.49-2.42,2.24-5.33,2.24-8.76c0-3.32-0.73-6.1-2.17-8.37c-1.59-2.53-3.79-3.79-6.59-3.79h-12.99c-2.78,0-4.97,1.26-6.56,3.79 c-1.43,2.27-2.16,5.05-2.16,8.37c0,3.43,0.74,6.34,2.2,8.76c1.61,2.68,3.79,4.01,6.52,4.01H309.29z M393.89,143.79 c0,2.78-1.35,5.06-4.03,6.87c-2.52,1.69-5.53,2.53-9.05,2.53c-3.05,0-5.78-0.68-8.18-2.03c-2.71-1.51-4.61-3.69-5.72-6.54 c-0.23-0.56-1.25-3.65-3.06-9.28c-1.69-5.26-3.13-9.25-4.32-11.97c-1.69-3.92-3.09-5.81-4.18-5.69c-0.73,0.16-1.23,0.4-1.49,0.73 c-0.27,0.35-0.4,0.83-0.4,1.45v32.67h-11.41v-34.92c0-3.19,1.41-5.61,4.25-7.29c2.45-1.43,5.58-2.15,9.4-2.15 c5.07,0,9.13,2.18,12.16,6.55c2.02,2.88,3.95,7.57,5.76,14.05c2.03,7.11,3.5,11.54,4.44,13.29c0.26,0.45,0.6,0.79,1.02,1.03 c0.43,0.23,0.88,0.35,1.33,0.35c0.55,0,1.04-0.19,1.43-0.56c0.4-0.37,0.61-0.9,0.61-1.56v-32.68h11.45V143.79z M418.6,152.55h-11.4 v-43.56h11.4V152.55z M418.6,152.55"></path> <path class="st5" d="M15.7,184.12H6.75c-2.15,0-3.84-0.91-5.08-2.72c-1.11-1.62-1.67-3.62-1.67-6c0-2.43,0.57-4.49,1.7-6.18 c1.26-1.88,2.95-2.83,5.06-2.83h8.95v3.74H7.43c-0.99,0-1.77,0.51-2.34,1.54c-0.51,0.92-0.77,2.05-0.77,3.41 c0,1.4,0.26,2.58,0.78,3.57c0.58,1.08,1.35,1.63,2.32,1.63h8.27V184.12z M51.96,184.12h-5.97c-2.14,0-3.84-0.91-5.08-2.72 c-1.11-1.62-1.67-3.62-1.67-6c0-2.43,0.56-4.49,1.7-6.18c1.25-1.88,2.94-2.83,5.05-2.83h5.97c2.11,0,3.8,0.94,5.06,2.83 c1.13,1.69,1.69,3.76,1.69,6.18c0,2.39-0.54,4.39-1.65,6C55.82,183.21,54.12,184.12,51.96,184.12L51.96,184.12z M51.29,180.28 c0.96,0,1.73-0.55,2.32-1.63c0.53-0.99,0.79-2.17,0.79-3.57c0-1.35-0.25-2.49-0.77-3.41c-0.56-1.03-1.34-1.54-2.34-1.54h-4.62 c-0.99,0-1.77,0.51-2.33,1.54c-0.51,0.92-0.77,2.05-0.77,3.41c0,1.4,0.26,2.58,0.78,3.57c0.58,1.08,1.34,1.63,2.32,1.63H51.29z M110.67,184.12h-4.14c-0.32-1.24-0.65-2.47-0.97-3.71c-0.73-2.7-1.42-4.99-2.08-6.87c-0.84-2.45-1.45-3.66-1.83-3.6 c-0.27,0.06-0.45,0.16-0.54,0.3c-0.1,0.14-0.14,0.34-0.14,0.59v9.74c0,1.13-0.48,2.06-1.43,2.79c-0.89,0.69-1.96,1.03-3.22,1.03 c-1.08,0-2.06-0.27-2.91-0.82c-0.96-0.61-1.64-1.5-2.03-2.66c-0.08-0.22-0.45-1.49-1.09-3.78c-0.6-2.14-1.12-3.76-1.54-4.87 c-0.6-1.59-1.1-2.37-1.48-2.31c-0.26,0.06-0.44,0.16-0.53,0.3c-0.09,0.14-0.14,0.34-0.14,0.59v13.3h-4.06v-14.21 c0-1.3,0.51-2.29,1.51-2.97c0.88-0.58,1.99-0.87,3.35-0.87c1.8,0,3.24,0.89,4.32,2.66c0.72,1.18,1.41,3.08,2.05,5.72 c0.72,2.89,1.24,4.7,1.57,5.41c0.11,0.22,0.26,0.39,0.45,0.52c0.19,0.13,0.38,0.21,0.57,0.21c0.39,0,0.58-0.25,0.58-0.72v-9.95 c0-1.3,0.5-2.29,1.51-2.97c0.86-0.58,1.98-0.87,3.34-0.87c1.11,0,2.1,0.38,2.94,1.14c0.91,0.81,1.6,2.02,2.06,3.61L110.67,184.12z M143.72,177.13h-3.9c-1,0-1.71,0.33-2.15,0.98c-0.29,0.45-0.43,1-0.43,1.68c0,0.17,0,0.29,0.01,0.37c0.01,0.08,0.02,0.14,0.04,0.2 v3.77h-3.99c0-0.3,0-0.7,0-1.22c0-0.52,0-1.19,0-2.01c0-0.83,0-1.7,0-2.64c0-1.41,0.36-2.56,1.08-3.44 c0.84-1.01,2.08-1.52,3.69-1.52h4.96c0.45,0,0.82-0.16,1.08-0.48c0.24-0.29,0.35-0.65,0.35-1.08c0-0.43-0.12-0.8-0.35-1.11 c-0.26-0.34-0.62-0.51-1.08-0.51h-9.74v-3.74h10.42c1.55,0,2.78,0.56,3.68,1.67c0.83,1.02,1.25,2.25,1.25,3.7 c0,1.47-0.41,2.7-1.23,3.7C146.52,176.58,145.28,177.13,143.72,177.13L143.72,177.13z M188.3,177.77c0,2.05-0.83,3.68-2.47,4.91 c-1.48,1.1-3.28,1.65-5.41,1.65c-2.1,0-3.84-0.53-5.26-1.61c-1.58-1.2-2.37-2.85-2.37-4.94v-11.2h3.96v10.56 c0,0.94,0.41,1.69,1.23,2.25c0.74,0.5,1.64,0.76,2.71,0.76c1.02,0,1.87-0.24,2.57-0.73c0.79-0.56,1.17-1.32,1.17-2.28v-10.56h3.86 V177.77z M224.28,170.13h-4.13v13.99h-3.99v-13.99h-4.12v-3.74h12.25V170.13z M266.19,184.12h-4.32l-4.77-13.64 c-0.03-0.14-0.14-0.21-0.31-0.21c-0.19,0-0.31,0.07-0.38,0.21l-4.68,13.64h-4.38c0.34-1.12,0.88-2.79,1.61-5.03 c0.82-2.49,1.62-4.85,2.39-7.11c0.86-2.46,1.39-3.85,1.59-4.14c0.37-0.5,0.9-0.88,1.59-1.14c0.69-0.26,1.43-0.39,2.24-0.39 c0.8,0,1.54,0.13,2.24,0.39c0.69,0.25,1.21,0.64,1.56,1.14c0.22,0.28,0.77,1.66,1.62,4.12c0.6,1.74,1.39,4.1,2.38,7.11 C265.1,180.76,265.64,182.44,266.19,184.12L266.19,184.12z M305.12,184.12h-8.95c-2.15,0-3.84-0.91-5.08-2.72 c-1.12-1.62-1.67-3.62-1.67-6c0-2.43,0.57-4.49,1.7-6.18c1.26-1.88,2.94-2.83,5.06-2.83h8.95v3.74h-8.28 c-0.99,0-1.77,0.51-2.33,1.54c-0.51,0.92-0.77,2.05-0.77,3.41c0,1.4,0.26,2.58,0.78,3.57c0.58,1.08,1.35,1.63,2.32,1.63h8.28 V184.12z M333.48,184.12h-4.06V166.4h4.06V184.12z M369.74,184.12h-5.96c-2.15,0-3.84-0.91-5.09-2.72c-1.11-1.62-1.67-3.62-1.67-6 c0-2.43,0.57-4.49,1.7-6.18c1.26-1.88,2.94-2.83,5.05-2.83h5.96c2.11,0,3.8,0.94,5.06,2.83c1.13,1.69,1.7,3.76,1.7,6.18 c0,2.39-0.56,4.39-1.66,6C373.6,183.21,371.9,184.12,369.74,184.12L369.74,184.12z M369.07,180.28c0.96,0,1.73-0.55,2.32-1.63 c0.53-0.99,0.79-2.17,0.79-3.57c0-1.35-0.26-2.49-0.77-3.41c-0.56-1.03-1.35-1.54-2.34-1.54h-4.62c-0.99,0-1.76,0.51-2.33,1.54 c-0.51,0.92-0.76,2.05-0.76,3.41c0,1.4,0.26,2.58,0.78,3.57c0.58,1.08,1.35,1.63,2.32,1.63H369.07z M418.73,180.56 c0,1.13-0.48,2.06-1.43,2.79c-0.9,0.69-1.97,1.03-3.22,1.03c-1.08,0-2.05-0.27-2.91-0.82c-0.96-0.61-1.64-1.5-2.03-2.66 c-0.09-0.22-0.45-1.49-1.09-3.78c-0.6-2.14-1.12-3.76-1.54-4.87c-0.6-1.59-1.1-2.37-1.48-2.31c-0.26,0.06-0.44,0.16-0.53,0.3 c-0.1,0.14-0.14,0.34-0.14,0.59v13.3h-4.06v-14.21c0-1.3,0.51-2.29,1.51-2.97c0.87-0.58,1.99-0.87,3.34-0.87 c1.81,0,3.25,0.89,4.33,2.67c0.71,1.17,1.4,3.08,2.05,5.71c0.72,2.89,1.25,4.7,1.58,5.41c0.09,0.18,0.21,0.32,0.36,0.42 c0.15,0.09,0.32,0.14,0.48,0.14c0.2,0,0.37-0.08,0.51-0.23c0.14-0.15,0.21-0.36,0.21-0.64v-13.3h4.08V180.56z M418.73,180.56"></path> <line class="st6" x1="260.89" y1="71.19" x2="207.07" y2="71.19"></line> <path class="st5" d="M271.55,72.1c0.15,7.87-6.1,14.26-13.97,14.26c-5.76,0-11.03-3.48-13.34-8.8c-2.31-5.32-1.21-11.45,2.79-15.53 c4-4.07,10.1-5.29,15.47-3.09C267.86,61.14,271.44,66.33,271.55,72.1L271.55,72.1z M271.55,72.1"></path> <path class="st5" d="M269.15,72.1c0.06,3.14-1.13,6.16-3.3,8.38c-2.18,2.22-5.17,3.47-8.31,3.47c-4.79,0-9.17-2.88-11.09-7.31 c-1.92-4.42-1.01-9.52,2.32-12.91c3.32-3.39,8.39-4.4,12.86-2.56C266.08,62.99,269.05,67.31,269.15,72.1L269.15,72.1z M269.15,72.1 "></path> <path class="st5" d="M209.26,70.1c0,6.56-2.6,12.84-7.24,17.47c-4.63,4.63-10.91,7.23-17.46,7.23c-10,0-19-6.02-22.83-15.25 c-3.82-9.23-1.7-19.85,5.36-26.92c7.06-7.07,17.69-9.18,26.92-5.36C203.24,51.11,209.26,60.12,209.26,70.1L209.26,70.1z M209.26,70.1"></path> <path class="st5" d="M206.11,70.1c0,5.72-2.27,11.2-6.32,15.25c-4.04,4.04-9.52,6.31-15.24,6.31c-8.72,0-16.58-5.26-19.92-13.31 c-3.33-8.05-1.49-17.33,4.67-23.5c6.17-6.17,15.44-8.01,23.49-4.67C200.86,53.52,206.11,61.39,206.11,70.1L206.11,70.1z M206.11,70.1"></path> <line class="st7" x1="148.21" y1="70.96" x2="106.19" y2="70.96"></line> <path class="st8" d="M148.29,70.63c-1.16-14.51,6.44-28.31,19.31-35.09c12.88-6.78,28.55-5.24,39.87,3.92"></path> <path class="st5" d="M194.02,8.44c0,4.66-3.78,8.44-8.44,8.44c-3.41,0-6.49-2.05-7.79-5.2c-1.31-3.16-0.58-6.78,1.83-9.2 c2.41-2.41,6.04-3.13,9.19-1.83C191.95,1.94,194.02,5.02,194.02,8.44L194.02,8.44z M194.02,8.44"></path> <path class="st5" d="M191.97,8.44c0,3.53-2.86,6.4-6.4,6.4c-5.7,0-8.55-6.89-4.52-10.92C185.08-0.12,191.97,2.74,191.97,8.44 L191.97,8.44z M191.97,8.44"></path> <path class="st5" d="M125.28,70.54c0,5.28-2.1,10.35-5.83,14.08c-3.74,3.74-8.8,5.83-14.08,5.83c-8.05,0-15.32-4.85-18.39-12.29 c-3.08-7.44-1.38-16.01,4.31-21.7c5.7-5.7,14.26-7.4,21.7-4.31C120.43,55.23,125.28,62.49,125.28,70.54L125.28,70.54z M125.28,70.54"></path> <path class="st5" d="M122.43,70.54c0,9.42-7.64,17.06-17.06,17.06c-6.9,0-13.12-4.16-15.76-10.53c-2.64-6.38-1.18-13.71,3.7-18.59 c4.88-4.88,12.22-6.34,18.59-3.69C118.28,57.42,122.43,63.65,122.43,70.54L122.43,70.54z M122.43,70.54"></path> </g> </svg> 